<svg width="279" height="279" viewBox="0 0 279 279" fill="none" xmlns="http://www.w3.org/2000/svg">
<path fill-rule="evenodd" clip-rule="evenodd" d="M179.939 11.1811C186.804 11.3766 192.393 15.0919 196.828 20.3628C201.358 25.7467 204.943 33.0264 207.811 40.8283C213.225 55.5534 216.372 72.9668 218.231 85.26C220.266 84.9177 222.357 84.7374 224.489 84.7374H254.5L254.808 84.7456C257.98 84.9065 260.501 87.5288 260.501 90.7397V154.523C260.501 172.585 246.088 187.282 228.135 187.737L228.12 187.738L227.29 187.749H199.877V187.756H181.783C181.678 187.756 181.572 187.752 181.465 187.747L181.026 187.749L181.025 187.717C177.912 187.422 175.345 185.365 173.413 183.082C171.864 181.252 170.453 178.963 169.2 176.415V215.352L169.185 216.679V216.694C168.477 244.621 145.967 267.131 118.039 267.839L118.026 267.84L116.697 267.857H26.0008L25.9845 267.856L25.5696 267.843H25.5532L25.5368 267.841C20.742 267.545 17.4318 262.863 18.816 258.247L18.8255 258.217L18.9567 257.824L18.9684 257.79C45.5018 185.979 93.479 56.5698 98.171 45.6858L98.1758 45.674L98.3654 45.2476L98.369 45.2393L98.3738 45.2299C100.493 40.6877 104.089 32.4036 109.213 25.1803C114.311 17.9947 121.133 11.5543 129.808 11.1635H129.833L130.614 11.146L130.626 11.1436H179.939V11.1811ZM130.638 17.7905C125.085 17.7906 119.799 21.8446 114.852 28.7171C110.046 35.3964 106.655 43.1958 104.393 48.0413C103.674 49.5827 100.093 58.8874 94.5398 73.6045C89.054 88.1464 81.7692 107.632 73.743 129.18C57.6906 172.277 38.6824 223.605 25.2005 260.093C25.0079 260.616 25.3839 261.211 26.0184 261.211H116.685C141.622 261.211 161.913 241.309 162.54 216.523L162.556 215.339V147.994C162.551 147.681 162.547 147.367 162.547 147.054V145.981H162.556V132.425C162.556 111.599 162.556 81.3744 164.043 56.3428C164.784 43.8659 165.909 32.4206 167.655 24.0002C168.109 21.8054 168.629 19.7176 169.229 17.8139H162.786V17.7905H130.638ZM176.266 17.8139C174.607 22.0393 173.313 28.7942 172.323 37.2096C171.285 46.0355 170.591 56.5769 170.128 67.7112C169.201 89.9793 169.2 114.557 169.2 132.425V147.847L169.217 148.57C169.44 156.057 171.274 164.285 173.925 170.729C175.342 174.177 176.926 176.945 178.487 178.789C180.125 180.726 181.269 181.11 181.783 181.11H186.31C186.726 179.826 186.976 178.241 186.976 176.329V122.25L186.984 121.475C187.306 105.559 197.543 92.0797 211.767 86.9522C209.935 74.7134 206.848 57.4703 201.574 43.1218C198.823 35.6417 195.562 29.1785 191.743 24.6413C188.073 20.2786 184.132 17.9606 179.793 17.8198L179.371 17.8139H176.266ZM224.489 91.383C207.442 91.3832 193.621 105.203 193.621 122.25V176.329L193.609 177.138C193.57 178.511 193.425 179.838 193.169 181.102H227.278C241.956 181.101 253.857 169.201 253.857 154.523V91.383H224.489Z" fill="white"/>
</svg>
