<svg width="279" height="279" viewBox="0 0 279 279" fill="none" xmlns="http://www.w3.org/2000/svg">
<path d="M176.028 12.2158C175.723 12.6694 175.445 13.1573 175.189 13.6619C173.962 16.0815 172.951 19.4912 172.103 23.5796C170.402 31.7817 169.28 43.1023 168.533 55.6725C167.038 80.8327 167.038 111.26 167.038 132.345V216.178L167.036 216.506C166.861 244.195 144.448 266.608 116.758 266.783L116.431 266.785H24.7611C21.2035 266.785 18.7467 263.276 19.9706 259.963C33.6025 223.069 52.8214 171.169 69.0534 127.591C77.1694 105.801 84.5382 86.093 90.0885 71.3815C95.6556 56.6247 99.3624 46.9844 100.176 45.2405C102.394 40.4891 106.002 32.1731 111.149 25.0221C116.33 17.8217 122.776 12.2159 130.54 12.2158H176.028ZM255.772 86.6241C257.747 86.6241 259.348 88.2257 259.348 90.2006V154.689L259.345 155.091C259.129 172.082 245.288 185.789 228.247 185.789H187.379C187.466 185.683 187.552 185.573 187.636 185.461C189.109 183.475 189.941 180.65 189.991 177.086L189.994 176.738V122.06C189.994 102.489 205.858 86.6241 225.428 86.6241H255.772ZM183.65 13.5272C186.436 13.5273 189.451 15.7549 192.581 20.2877C195.649 24.7334 198.552 31.0025 201.208 38.1928C206.347 52.1059 210.456 69.1744 213.072 82.3597C196.074 87.5511 183.707 103.359 183.707 122.06V176.578L183.706 176.704C183.689 178.009 183.408 179.54 182.888 180.712C182.311 182.012 181.711 182.342 181.319 182.342C180.992 182.342 180.358 182.073 179.443 181.006C178.583 180.003 177.702 178.559 176.857 176.883C175.218 173.63 173.837 169.751 173.05 167.213V132.345C173.05 73.0153 175.117 43.0615 177.63 27.9635C178.892 20.3799 180.241 16.7254 181.373 14.9851C181.918 14.1472 182.364 13.8295 182.656 13.6924C182.952 13.5536 183.235 13.5272 183.65 13.5272Z" fill="white"/>
</svg>
